<svg width="190" height="164" viewBox="0 0 190 164" fill="none" xmlns="http://www.w3.org/2000/svg">
<path d="M8.46 126.435V120.945H15.3C16.17 120.945 16.965 120.765 17.685 120.405C18.405 120.045 18.975 119.52 19.395 118.83C19.815 118.14 20.025 117.3 20.025 116.31C20.025 115.35 19.815 114.525 19.395 113.835C18.975 113.145 18.405 112.62 17.685 112.26C16.965 111.9 16.17 111.72 15.3 111.72H8.46V106.23H16.335C18.345 106.23 20.16 106.635 21.78 107.445C23.4 108.255 24.675 109.425 25.605 110.955C26.565 112.455 27.045 114.24 27.045 116.31C27.045 118.38 26.565 120.18 25.605 121.71C24.675 123.21 23.4 124.38 21.78 125.22C20.16 126.03 18.345 126.435 16.335 126.435H8.46ZM3.06 138V106.23H10.125V138H3.06ZM30.6868 138V116.13H37.5718V138H30.6868ZM34.1518 113.115C33.0718 113.115 32.1718 112.755 31.4518 112.035C30.7618 111.285 30.4168 110.385 30.4168 109.335C30.4168 108.255 30.7618 107.355 31.4518 106.635C32.1718 105.915 33.0718 105.555 34.1518 105.555C35.2318 105.555 36.1168 105.915 36.8068 106.635C37.4968 107.355 37.8418 108.255 37.8418 109.335C37.8418 110.385 37.4968 111.285 36.8068 112.035C36.1168 112.755 35.2318 113.115 34.1518 113.115ZM55.9652 138L50.7002 129.495L49.2152 128.55L40.6202 116.13H48.6752L53.5802 124.095L55.0202 124.995L63.9302 138H55.9652ZM40.2152 138L49.1702 125.265L53.0852 129.675L47.7302 138H40.2152ZM54.9752 128.505L51.0602 124.095L56.0102 116.13H63.4802L54.9752 128.505ZM76.7749 138.495C74.4049 138.495 72.2899 138.015 70.4299 137.055C68.5999 136.065 67.1599 134.7 66.1099 132.96C65.0599 131.22 64.5349 129.255 64.5349 127.065C64.5349 124.875 65.0449 122.925 66.0649 121.215C67.1149 119.475 68.5249 118.11 70.2949 117.12C72.0649 116.13 74.0599 115.635 76.2799 115.635C78.4399 115.635 80.3449 116.1 81.9949 117.03C83.6449 117.96 84.9349 119.25 85.8649 120.9C86.8249 122.55 87.3049 124.44 87.3049 126.57C87.3049 126.96 87.2749 127.38 87.2149 127.83C87.1849 128.25 87.1099 128.745 86.9899 129.315L68.1349 129.36V124.635L84.0649 124.59L81.0949 126.57C81.0649 125.31 80.8699 124.275 80.5099 123.465C80.1499 122.625 79.6099 121.995 78.8899 121.575C78.1999 121.125 77.3449 120.9 76.3249 120.9C75.2449 120.9 74.2999 121.155 73.4899 121.665C72.7099 122.145 72.0949 122.835 71.6449 123.735C71.2249 124.635 71.0149 125.73 71.0149 127.02C71.0149 128.31 71.2399 129.42 71.6899 130.35C72.1699 131.25 72.8299 131.955 73.6699 132.465C74.5399 132.945 75.5599 133.185 76.7299 133.185C77.8099 133.185 78.7849 133.005 79.6549 132.645C80.5249 132.255 81.2899 131.685 81.9499 130.935L85.7299 134.715C84.6499 135.975 83.3449 136.92 81.8149 137.55C80.2849 138.18 78.6049 138.495 76.7749 138.495ZM90.6282 138V105.33H97.5132V138H90.6282ZM111.497 138.45C109.487 138.45 107.687 137.955 106.097 136.965C104.537 135.975 103.292 134.625 102.362 132.915C101.462 131.205 101.012 129.255 101.012 127.065C101.012 124.875 101.462 122.925 102.362 121.215C103.292 119.505 104.537 118.155 106.097 117.165C107.687 116.175 109.487 115.68 111.497 115.68C112.967 115.68 114.287 115.965 115.457 116.535C116.657 117.105 117.632 117.9 118.382 118.92C119.132 119.91 119.552 121.05 119.642 122.34V131.79C119.552 133.08 119.132 134.235 118.382 135.255C117.662 136.245 116.702 137.025 115.502 137.595C114.302 138.165 112.967 138.45 111.497 138.45ZM112.892 132.24C114.362 132.24 115.547 131.76 116.447 130.8C117.347 129.81 117.797 128.565 117.797 127.065C117.797 126.045 117.587 125.145 117.167 124.365C116.777 123.585 116.207 122.985 115.457 122.565C114.737 122.115 113.897 121.89 112.937 121.89C111.977 121.89 111.122 122.115 110.372 122.565C109.652 122.985 109.067 123.585 108.617 124.365C108.197 125.145 107.987 126.045 107.987 127.065C107.987 128.055 108.197 128.94 108.617 129.72C109.037 130.5 109.622 131.115 110.372 131.565C111.122 132.015 111.962 132.24 112.892 132.24ZM117.527 138V132.105L118.562 126.795L117.527 121.485V116.13H124.277V138H117.527ZM133.444 138.495C132.274 138.495 131.299 138.09 130.519 137.28C129.739 136.47 129.349 135.495 129.349 134.355C129.349 133.155 129.739 132.165 130.519 131.385C131.299 130.575 132.274 130.17 133.444 130.17C134.644 130.17 135.619 130.575 136.369 131.385C137.149 132.165 137.539 133.155 137.539 134.355C137.539 135.495 137.149 136.47 136.369 137.28C135.619 138.09 134.644 138.495 133.444 138.495ZM142.616 138V116.13H149.501V138H142.616ZM146.081 113.115C145.001 113.115 144.101 112.755 143.381 112.035C142.691 111.285 142.346 110.385 142.346 109.335C142.346 108.255 142.691 107.355 143.381 106.635C144.101 105.915 145.001 105.555 146.081 105.555C147.161 105.555 148.046 105.915 148.736 106.635C149.426 107.355 149.771 108.255 149.771 109.335C149.771 110.385 149.426 111.285 148.736 112.035C148.046 112.755 147.161 113.115 146.081 113.115ZM164.879 138.495C162.629 138.495 160.589 138 158.759 137.01C156.959 135.99 155.534 134.61 154.484 132.87C153.434 131.13 152.909 129.18 152.909 127.02C152.909 124.86 153.434 122.925 154.484 121.215C155.534 119.505 156.959 118.155 158.759 117.165C160.559 116.145 162.599 115.635 164.879 115.635C167.159 115.635 169.199 116.13 170.999 117.12C172.799 118.11 174.224 119.475 175.274 121.215C176.324 122.925 176.849 124.86 176.849 127.02C176.849 129.18 176.324 131.13 175.274 132.87C174.224 134.61 172.799 135.99 170.999 137.01C169.199 138 167.159 138.495 164.879 138.495ZM164.879 132.24C165.869 132.24 166.739 132.03 167.489 131.61C168.239 131.16 168.809 130.545 169.199 129.765C169.619 128.955 169.829 128.04 169.829 127.02C169.829 126 169.619 125.115 169.199 124.365C168.779 123.585 168.194 122.985 167.444 122.565C166.724 122.115 165.869 121.89 164.879 121.89C163.919 121.89 163.064 122.115 162.314 122.565C161.564 122.985 160.979 123.585 160.559 124.365C160.139 125.145 159.929 126.045 159.929 127.065C159.929 128.055 160.139 128.955 160.559 129.765C160.979 130.545 161.564 131.16 162.314 131.61C163.064 132.03 163.919 132.24 164.879 132.24Z" fill="white"/>
<path d="M2.872 154V145.316H3.782V154H2.872ZM1.325 148.709V147.89H5.316V148.709H1.325ZM8.98748 154.13C8.49348 154.13 8.05148 154.017 7.66148 153.792C7.27148 153.558 6.96382 153.242 6.73848 152.843C6.52182 152.444 6.41348 151.976 6.41348 151.439V147.89H7.33648V151.4C7.33648 151.773 7.40148 152.098 7.53148 152.375C7.67015 152.652 7.86515 152.869 8.11648 153.025C8.36782 153.181 8.65815 153.259 8.98748 153.259C9.49882 153.259 9.90182 153.09 10.1965 152.752C10.4998 152.414 10.6515 151.963 10.6515 151.4V147.89H11.5615V151.439C11.5615 151.968 11.4532 152.436 11.2365 152.843C11.0198 153.25 10.7165 153.567 10.3265 153.792C9.93648 154.017 9.49015 154.13 8.98748 154.13ZM19.2119 154.13C18.7439 154.13 18.3235 154.035 17.9509 153.844C17.5782 153.653 17.2705 153.393 17.0279 153.064C16.7939 152.726 16.6509 152.336 16.5989 151.894V149.983C16.6509 149.532 16.7982 149.142 17.0409 148.813C17.2835 148.475 17.5912 148.215 17.9639 148.033C18.3452 147.851 18.7612 147.76 19.2119 147.76C19.7752 147.76 20.2822 147.903 20.7329 148.189C21.1835 148.466 21.5389 148.848 21.7989 149.333C22.0675 149.81 22.2019 150.351 22.2019 150.958C22.2019 151.556 22.0719 152.093 21.8119 152.57C21.5519 153.047 21.1922 153.428 20.7329 153.714C20.2822 153.991 19.7752 154.13 19.2119 154.13ZM16.0529 156.574V147.89H16.9629V149.45L16.7809 150.932L16.9629 152.427V156.574H16.0529ZM19.0559 153.259C19.4892 153.259 19.8705 153.164 20.1999 152.973C20.5292 152.774 20.7849 152.501 20.9669 152.154C21.1575 151.799 21.2529 151.396 21.2529 150.945C21.2529 150.486 21.1575 150.083 20.9669 149.736C20.7849 149.389 20.5292 149.116 20.1999 148.917C19.8705 148.718 19.4935 148.618 19.0689 148.618C18.6442 148.618 18.2672 148.718 17.9379 148.917C17.6172 149.116 17.3659 149.389 17.1839 149.736C17.0019 150.083 16.9109 150.486 16.9109 150.945C16.9109 151.396 17.0019 151.799 17.1839 152.154C17.3659 152.501 17.6172 152.774 17.9379 152.973C18.2585 153.164 18.6312 153.259 19.0559 153.259ZM26.3094 154.13C25.7287 154.13 25.2087 153.991 24.7494 153.714C24.29 153.428 23.926 153.047 23.6574 152.57C23.3974 152.093 23.2674 151.556 23.2674 150.958C23.2674 150.351 23.3974 149.81 23.6574 149.333C23.926 148.848 24.29 148.466 24.7494 148.189C25.2087 147.903 25.7244 147.76 26.2964 147.76C26.7644 147.76 27.1804 147.855 27.5444 148.046C27.917 148.228 28.216 148.488 28.4414 148.826C28.6754 149.155 28.8184 149.541 28.8704 149.983V151.894C28.8184 152.336 28.6754 152.726 28.4414 153.064C28.216 153.402 27.917 153.666 27.5444 153.857C27.1804 154.039 26.7687 154.13 26.3094 154.13ZM26.4524 153.259C27.085 153.259 27.592 153.047 27.9734 152.622C28.3634 152.197 28.5584 151.638 28.5584 150.945C28.5584 150.486 28.4674 150.083 28.2854 149.736C28.112 149.381 27.865 149.108 27.5444 148.917C27.2324 148.718 26.864 148.618 26.4394 148.618C26.006 148.618 25.6204 148.718 25.2824 148.917C24.953 149.116 24.6887 149.394 24.4894 149.749C24.2987 150.096 24.2034 150.494 24.2034 150.945C24.2034 151.396 24.2987 151.794 24.4894 152.141C24.6887 152.488 24.9574 152.761 25.2954 152.96C25.6334 153.159 26.019 153.259 26.4524 153.259ZM28.5064 154V152.362L28.6884 150.854L28.5064 149.385V147.89H29.4164V154H28.5064ZM35.7079 154V150.412C35.7079 149.875 35.5475 149.441 35.2269 149.112C34.9149 148.774 34.4989 148.605 33.9789 148.605C33.6235 148.605 33.3115 148.683 33.0429 148.839C32.7742 148.995 32.5619 149.207 32.4059 149.476C32.2499 149.745 32.1719 150.052 32.1719 150.399L31.7559 150.165C31.7559 149.706 31.8642 149.294 32.0809 148.93C32.2975 148.566 32.5879 148.28 32.9519 148.072C33.3245 147.864 33.7492 147.76 34.2259 147.76C34.6939 147.76 35.1099 147.873 35.4739 148.098C35.8379 148.323 36.1195 148.627 36.3189 149.008C36.5269 149.389 36.6309 149.805 36.6309 150.256V154H35.7079ZM31.2619 154V147.89H32.1719V154H31.2619ZM39.206 154V145.316H40.116V154H39.206ZM37.659 148.709V147.89H41.65V148.709H37.659ZM45.3396 154.13C44.759 154.13 44.239 153.991 43.7796 153.714C43.3203 153.428 42.9563 153.047 42.6876 152.57C42.4276 152.093 42.2976 151.556 42.2976 150.958C42.2976 150.351 42.4276 149.81 42.6876 149.333C42.9563 148.848 43.3203 148.466 43.7796 148.189C44.239 147.903 44.7546 147.76 45.3266 147.76C45.7946 147.76 46.2106 147.855 46.5746 148.046C46.9473 148.228 47.2463 148.488 47.4716 148.826C47.7056 149.155 47.8486 149.541 47.9006 149.983V151.894C47.8486 152.336 47.7056 152.726 47.4716 153.064C47.2463 153.402 46.9473 153.666 46.5746 153.857C46.2106 154.039 45.799 154.13 45.3396 154.13ZM45.4826 153.259C46.1153 153.259 46.6223 153.047 47.0036 152.622C47.3936 152.197 47.5886 151.638 47.5886 150.945C47.5886 150.486 47.4976 150.083 47.3156 149.736C47.1423 149.381 46.8953 149.108 46.5746 148.917C46.2626 148.718 45.8943 148.618 45.4696 148.618C45.0363 148.618 44.6506 148.718 44.3126 148.917C43.9833 149.116 43.719 149.394 43.5196 149.749C43.329 150.096 43.2336 150.494 43.2336 150.945C43.2336 151.396 43.329 151.794 43.5196 152.141C43.719 152.488 43.9876 152.761 44.3256 152.96C44.6636 153.159 45.0493 153.259 45.4826 153.259ZM47.5366 154V152.362L47.7186 150.854L47.5366 149.385V147.89H48.4466V154H47.5366ZM50.2921 154V144.796H51.2021V154H50.2921ZM53.047 154V144.796H53.957V154H53.047ZM58.4539 154.13C57.8732 154.13 57.3532 153.991 56.8939 153.714C56.4346 153.428 56.0706 153.047 55.8019 152.57C55.5419 152.093 55.4119 151.556 55.4119 150.958C55.4119 150.351 55.5419 149.81 55.8019 149.333C56.0706 148.848 56.4346 148.466 56.8939 148.189C57.3532 147.903 57.8689 147.76 58.4409 147.76C58.9089 147.76 59.3249 147.855 59.6889 148.046C60.0616 148.228 60.3606 148.488 60.5859 148.826C60.8199 149.155 60.9629 149.541 61.0149 149.983V151.894C60.9629 152.336 60.8199 152.726 60.5859 153.064C60.3606 153.402 60.0616 153.666 59.6889 153.857C59.3249 154.039 58.9132 154.13 58.4539 154.13ZM58.5969 153.259C59.2296 153.259 59.7366 153.047 60.1179 152.622C60.5079 152.197 60.7029 151.638 60.7029 150.945C60.7029 150.486 60.6119 150.083 60.4299 149.736C60.2566 149.381 60.0096 149.108 59.6889 148.917C59.3769 148.718 59.0086 148.618 58.5839 148.618C58.1506 148.618 57.7649 148.718 57.4269 148.917C57.0976 149.116 56.8332 149.394 56.6339 149.749C56.4432 150.096 56.3479 150.494 56.3479 150.945C56.3479 151.396 56.4432 151.794 56.6339 152.141C56.8332 152.488 57.1019 152.761 57.4399 152.96C57.7779 153.159 58.1636 153.259 58.5969 153.259ZM60.6509 154V152.362L60.8329 150.854L60.6509 149.385V147.89H61.5609V154H60.6509ZM63.5364 155.339L64.2774 153.896L64.6024 153.818C64.5677 153.896 64.5201 153.961 64.4594 154.013C64.3987 154.074 64.3251 154.104 64.2384 154.104C64.0737 154.104 63.9221 154.039 63.7834 153.909C63.6534 153.77 63.5884 153.601 63.5884 153.402C63.5884 153.194 63.6621 153.016 63.8094 152.869C63.9567 152.713 64.1344 152.635 64.3424 152.635C64.5417 152.635 64.7151 152.713 64.8624 152.869C65.0184 153.016 65.0964 153.194 65.0964 153.402C65.0964 153.489 65.0791 153.593 65.0444 153.714C65.0184 153.827 64.9577 153.978 64.8624 154.169L64.0824 155.638L63.5364 155.339ZM70.7158 154V145.316H71.6258V154H70.7158ZM69.1688 148.709V147.89H73.1598V148.709H69.1688ZM76.8312 154.13C76.3372 154.13 75.8952 154.017 75.5052 153.792C75.1152 153.558 74.8076 153.242 74.5822 152.843C74.3656 152.444 74.2572 151.976 74.2572 151.439V147.89H75.1802V151.4C75.1802 151.773 75.2452 152.098 75.3752 152.375C75.5139 152.652 75.7089 152.869 75.9602 153.025C76.2116 153.181 76.5019 153.259 76.8312 153.259C77.3426 153.259 77.7456 153.09 78.0402 152.752C78.3436 152.414 78.4952 151.963 78.4952 151.4V147.89H79.4052V151.439C79.4052 151.968 79.2969 152.436 79.0802 152.843C78.8636 153.25 78.5602 153.567 78.1702 153.792C77.7802 154.017 77.3339 154.13 76.8312 154.13ZM88.3426 154V150.412C88.3426 149.875 88.1823 149.441 87.8616 149.112C87.5496 148.774 87.1336 148.605 86.6136 148.605C86.2583 148.605 85.9463 148.683 85.6776 148.839C85.409 148.995 85.1966 149.207 85.0406 149.476C84.8846 149.745 84.8066 150.052 84.8066 150.399L84.3906 150.165C84.3906 149.706 84.499 149.294 84.7156 148.93C84.9323 148.566 85.2226 148.28 85.5866 148.072C85.9593 147.864 86.384 147.76 86.8606 147.76C87.3286 147.76 87.7446 147.868 88.1086 148.085C88.4726 148.293 88.7543 148.583 88.9536 148.956C89.1616 149.329 89.2656 149.762 89.2656 150.256V154H88.3426ZM83.8966 154V144.796H84.8066V154H83.8966ZM90.9679 154V147.89H91.8909V154H90.9679ZM91.4229 146.564C91.2496 146.564 91.1023 146.503 90.9809 146.382C90.8596 146.252 90.7989 146.1 90.7989 145.927C90.7989 145.745 90.8596 145.593 90.9809 145.472C91.1023 145.351 91.2496 145.29 91.4229 145.29C91.6136 145.29 91.7653 145.351 91.8779 145.472C91.9993 145.593 92.0599 145.745 92.0599 145.927C92.0599 146.1 91.9993 146.252 91.8779 146.382C91.7653 146.503 91.6136 146.564 91.4229 146.564ZM95.6075 154.13C95.2782 154.13 94.9618 154.087 94.6585 154C94.3552 153.905 94.0778 153.775 93.8265 153.61C93.5838 153.445 93.3715 153.25 93.1895 153.025L93.7745 152.427C94.0172 152.722 94.2902 152.943 94.5935 153.09C94.9055 153.229 95.2522 153.298 95.6335 153.298C96.0408 153.298 96.3572 153.22 96.5825 153.064C96.8165 152.908 96.9335 152.691 96.9335 152.414C96.9335 152.154 96.8512 151.95 96.6865 151.803C96.5218 151.656 96.3095 151.539 96.0495 151.452C95.7982 151.365 95.5295 151.283 95.2435 151.205C94.9575 151.118 94.6845 151.014 94.4245 150.893C94.1645 150.763 93.9522 150.585 93.7875 150.36C93.6315 150.135 93.5535 149.84 93.5535 149.476C93.5535 149.129 93.6358 148.83 93.8005 148.579C93.9738 148.319 94.2165 148.12 94.5285 147.981C94.8492 147.834 95.2262 147.76 95.6595 147.76C96.1188 147.76 96.5348 147.842 96.9075 148.007C97.2802 148.172 97.5792 148.414 97.8045 148.735L97.2195 149.32C97.0375 149.086 96.8078 148.908 96.5305 148.787C96.2618 148.657 95.9585 148.592 95.6205 148.592C95.2305 148.592 94.9315 148.67 94.7235 148.826C94.5242 148.973 94.4245 149.168 94.4245 149.411C94.4245 149.645 94.5068 149.831 94.6715 149.97C94.8362 150.1 95.0442 150.208 95.2955 150.295C95.5555 150.373 95.8285 150.455 96.1145 150.542C96.4005 150.62 96.6735 150.728 96.9335 150.867C97.1935 150.997 97.4015 151.179 97.5575 151.413C97.7222 151.638 97.8045 151.946 97.8045 152.336C97.8045 152.882 97.6052 153.32 97.2065 153.649C96.8165 153.97 96.2835 154.13 95.6075 154.13ZM100.194 154V145.316H101.104V154H100.194ZM98.6473 148.709V147.89H102.638V148.709H98.6473ZM106.445 154.13C105.856 154.13 105.318 153.987 104.833 153.701C104.356 153.415 103.975 153.029 103.689 152.544C103.412 152.059 103.273 151.517 103.273 150.919C103.273 150.33 103.412 149.797 103.689 149.32C103.975 148.843 104.356 148.466 104.833 148.189C105.318 147.903 105.856 147.76 106.445 147.76C107.043 147.76 107.58 147.899 108.057 148.176C108.534 148.453 108.911 148.835 109.188 149.32C109.474 149.797 109.617 150.33 109.617 150.919C109.617 151.526 109.474 152.072 109.188 152.557C108.911 153.034 108.534 153.415 108.057 153.701C107.58 153.987 107.043 154.13 106.445 154.13ZM106.445 153.246C106.878 153.246 107.26 153.146 107.589 152.947C107.927 152.748 108.191 152.47 108.382 152.115C108.581 151.76 108.681 151.361 108.681 150.919C108.681 150.477 108.581 150.087 108.382 149.749C108.191 149.402 107.927 149.129 107.589 148.93C107.26 148.731 106.878 148.631 106.445 148.631C106.02 148.631 105.639 148.731 105.301 148.93C104.963 149.129 104.699 149.402 104.508 149.749C104.317 150.087 104.222 150.477 104.222 150.919C104.222 151.37 104.317 151.773 104.508 152.128C104.699 152.475 104.963 152.748 105.301 152.947C105.639 153.146 106.02 153.246 106.445 153.246ZM111.065 154V147.89H111.975V154H111.065ZM111.975 150.438L111.598 150.269C111.598 149.498 111.784 148.887 112.157 148.436C112.538 147.985 113.058 147.76 113.717 147.76C114.02 147.76 114.297 147.816 114.549 147.929C114.8 148.033 115.034 148.202 115.251 148.436L114.653 149.073C114.505 148.908 114.341 148.791 114.159 148.722C113.985 148.653 113.786 148.618 113.561 148.618C113.093 148.618 112.711 148.774 112.417 149.086C112.122 149.389 111.975 149.84 111.975 150.438ZM116.219 154V147.89H117.142V154H116.219ZM116.674 146.564C116.501 146.564 116.353 146.503 116.232 146.382C116.111 146.252 116.05 146.1 116.05 145.927C116.05 145.745 116.111 145.593 116.232 145.472C116.353 145.351 116.501 145.29 116.674 145.29C116.865 145.29 117.016 145.351 117.129 145.472C117.25 145.593 117.311 145.745 117.311 145.927C117.311 146.1 117.25 146.252 117.129 146.382C117.016 146.503 116.865 146.564 116.674 146.564ZM121.638 154.13C121.058 154.13 120.538 153.991 120.078 153.714C119.619 153.428 119.255 153.047 118.986 152.57C118.726 152.093 118.596 151.556 118.596 150.958C118.596 150.351 118.726 149.81 118.986 149.333C119.255 148.848 119.619 148.466 120.078 148.189C120.538 147.903 121.053 147.76 121.625 147.76C122.093 147.76 122.509 147.855 122.873 148.046C123.246 148.228 123.545 148.488 123.77 148.826C124.004 149.155 124.147 149.541 124.199 149.983V151.894C124.147 152.336 124.004 152.726 123.77 153.064C123.545 153.402 123.246 153.666 122.873 153.857C122.509 154.039 122.098 154.13 121.638 154.13ZM121.781 153.259C122.414 153.259 122.921 153.047 123.302 152.622C123.692 152.197 123.887 151.638 123.887 150.945C123.887 150.486 123.796 150.083 123.614 149.736C123.441 149.381 123.194 149.108 122.873 148.917C122.561 148.718 122.193 148.618 121.768 148.618C121.335 148.618 120.949 148.718 120.611 148.917C120.282 149.116 120.018 149.394 119.818 149.749C119.628 150.096 119.532 150.494 119.532 150.945C119.532 151.396 119.628 151.794 119.818 152.141C120.018 152.488 120.286 152.761 120.624 152.96C120.962 153.159 121.348 153.259 121.781 153.259ZM123.835 154V152.362L124.017 150.854L123.835 149.385V147.89H124.745V154H123.835ZM127.553 154.13C127.336 154.13 127.159 154.056 127.02 153.909C126.881 153.762 126.812 153.584 126.812 153.376C126.812 153.168 126.881 152.995 127.02 152.856C127.159 152.709 127.336 152.635 127.553 152.635C127.761 152.635 127.934 152.709 128.073 152.856C128.212 152.995 128.281 153.168 128.281 153.376C128.281 153.584 128.212 153.762 128.073 153.909C127.934 154.056 127.761 154.13 127.553 154.13Z" fill="white"/>
<path d="M78.0746 8.18691L59.7308 81.9081C58.3035 88.5925 52.3986 93.3697 45.5639 93.3697H25.5858C21.3966 93.3697 18.2732 89.508 19.1475 85.4114L37.4913 11.6903C38.9186 5.00587 44.8234 0.228638 51.6582 0.228638H71.6363C75.8255 0.228638 78.9489 4.09038 78.0746 8.18691Z" fill="url(#paint0_linear_108_36)"/>
<path d="M129.128 4.19231L121.556 39.6462C119.189 50.734 109.392 58.6583 98.0544 58.6583H81.9463C79.7395 58.6583 78.0949 56.6245 78.5552 54.467L86.1263 19.0131C88.4938 7.92532 98.2902 0 109.628 0H125.736C127.943 0 129.588 2.03385 129.128 4.19231Z" fill="url(#paint1_linear_108_36)"/>
<defs>
<linearGradient id="paint0_linear_108_36" x1="67.6049" y1="5.33086" x2="19" y2="88.116" gradientUnits="userSpaceOnUse">
<stop stop-color="#EC1B69"/>
<stop offset="1" stop-color="#EC1B68" stop-opacity="0.76"/>
</linearGradient>
<linearGradient id="paint1_linear_108_36" x1="103.841" y1="0" x2="103.841" y2="58.6583" gradientUnits="userSpaceOnUse">
<stop stop-color="#EC1B69"/>
<stop offset="1" stop-color="#EC1B68"/>
</linearGradient>
</defs>
</svg>
